REM DIRINDEX 1\2,1\3,1\4,1\6,1\5\7,1\5\8
REM DIRNAME cjc114,folder01,folder02,folder03,folder04,folder05,folder06,folder07
TITLE ""
FILE "DB4500_5th_4B_33.mp3" MP3
  TRACK 01 AUDIO
    TITLE "2:cjc114_2792"
    INDEX 01 00:00:00
  TRACK 02 AUDIO
    TITLE "0:"
    INDEX 01 00:01:09
  TRACK 03 AUDIO
    TITLE "3:cjc114_2793"
    INDEX 01 00:01:28
  TRACK 04 AUDIO
    TITLE "0:"
    INDEX 01 00:03:06
  TRACK 05 AUDIO
    TITLE "4:cjc114_2794"
    INDEX 01 00:03:35
  TRACK 06 AUDIO
    TITLE "0:"
    INDEX 01 00:06:43
  TRACK 07 AUDIO
    TITLE "2:cjc114_2795"
    INDEX 01 00:07:23
  TRACK 08 AUDIO
    TITLE "0:"
    INDEX 01 00:08:32
  TRACK 09 AUDIO
    TITLE "3:cjc114_2796"
    INDEX 01 00:08:60
  TRACK 10 AUDIO
    TITLE "0:"
    INDEX 01 00:09:59
  TRACK 11 AUDIO
    TITLE "4:cjc114_2797"
    INDEX 01 00:10:14
  TRACK 12 AUDIO
    TITLE "0:"
    INDEX 01 00:12:67
  TRACK 13 AUDIO
    TITLE "2:cjc114_2798"
    INDEX 01 00:13:45
  TRACK 14 AUDIO
    TITLE "0:"
    INDEX 01 00:14:62
  TRACK 15 AUDIO
    TITLE "3:cjc114_2799"
    INDEX 01 00:15:15
  TRACK 16 AUDIO
    TITLE "0:"
    INDEX 01 00:16:44
  TRACK 17 AUDIO
    TITLE "4:cjc114_2800"
    INDEX 01 00:16:73
  TRACK 18 AUDIO
    TITLE "0:"
    INDEX 01 00:21:37
  TRACK 19 AUDIO
    TITLE "2:cjc114_2801"
    INDEX 01 00:22:15
  TRACK 20 AUDIO
    TITLE "0:"
    INDEX 01 00:23:20
  TRACK 21 AUDIO
    TITLE "3:cjc114_2802"
    INDEX 01 00:23:50
  TRACK 22 AUDIO
    TITLE "0:"
    INDEX 01 00:24:41
  TRACK 23 AUDIO
    TITLE "4:cjc114_2803"
    INDEX 01 00:24:71
  TRACK 24 AUDIO
    TITLE "0:"
    INDEX 01 00:28:51
  TRACK 25 AUDIO
    TITLE "2:cjc114_2804"
    INDEX 01 00:29:29
  TRACK 26 AUDIO
    TITLE "0:"
    INDEX 01 00:30:32
  TRACK 27 AUDIO
    TITLE "3:cjc114_2805"
    INDEX 01 00:30:61
  TRACK 28 AUDIO
    TITLE "0:"
    INDEX 01 00:32:03
  TRACK 29 AUDIO
    TITLE "4:cjc114_2806"
    INDEX 01 00:32:31
  TRACK 30 AUDIO
    TITLE "0:"
    INDEX 01 00:34:42
  TRACK 31 AUDIO
    TITLE "2:cjc114_2807"
    INDEX 01 00:35:19
  TRACK 32 AUDIO
    TITLE "0:"
    INDEX 01 00:36:31
  TRACK 33 AUDIO
    TITLE "3:cjc114_2808"
    INDEX 01 00:36:60
  TRACK 34 AUDIO
    TITLE "0:"
    INDEX 01 00:38:08
  TRACK 35 AUDIO
    TITLE "4:cjc114_2809"
    INDEX 01 00:38:35
  TRACK 36 AUDIO
    TITLE "0:"
    INDEX 01 00:42:19
  TRACK 37 AUDIO
    TITLE "2:cjc114_2810"
    INDEX 01 00:42:72
  TRACK 38 AUDIO
    TITLE "0:"
    INDEX 01 00:44:07
  TRACK 39 AUDIO
    TITLE "3:cjc114_2811"
    INDEX 01 00:44:38
  TRACK 40 AUDIO
    TITLE "0:"
    INDEX 01 00:45:53
  TRACK 41 AUDIO
    TITLE "4:cjc114_2812"
    INDEX 01 00:46:09
  TRACK 42 AUDIO
    TITLE "0:"
    INDEX 01 00:50:58
  TRACK 43 AUDIO
    TITLE "2:cjc114_2813"
    INDEX 01 00:51:38
  TRACK 44 AUDIO
    TITLE "0:"
    INDEX 01 00:52:49
  TRACK 45 AUDIO
    TITLE "3:cjc114_2814"
    INDEX 01 00:53:04
  TRACK 46 AUDIO
    TITLE "0:"
    INDEX 01 00:54:30
  TRACK 47 AUDIO
    TITLE "4:cjc114_2815"
    INDEX 01 00:54:60
  TRACK 48 AUDIO
    TITLE "0:"
    INDEX 01 00:57:56
  TRACK 49 AUDIO
    TITLE "2:cjc114_2816"
    INDEX 01 00:58:36
  TRACK 50 AUDIO
    TITLE "0:"
    INDEX 01 00:59:47
  TRACK 51 AUDIO
    TITLE "3:cjc114_2817"
    INDEX 01 01:00:00
  TRACK 52 AUDIO
    TITLE "0:"
    INDEX 01 01:01:25
  TRACK 53 AUDIO
    TITLE "4:cjc114_2818"
    INDEX 01 01:01:58
  TRACK 54 AUDIO
    TITLE "0:"
    INDEX 01 01:04:74
  TRACK 55 AUDIO
    TITLE "2:cjc114_2819"
    INDEX 01 01:05:50
  TRACK 56 AUDIO
    TITLE "0:"
    INDEX 01 01:06:47
  TRACK 57 AUDIO
    TITLE "3:cjc114_2820"
    INDEX 01 01:07:12
  TRACK 58 AUDIO
    TITLE "0:"
    INDEX 01 01:08:13
  TRACK 59 AUDIO
    TITLE "4:cjc114_2821"
    INDEX 01 01:08:40
  TRACK 60 AUDIO
    TITLE "0:"
    INDEX 01 01:12:11
  TRACK 61 AUDIO
    TITLE "2:cjc114_2822"
    INDEX 01 01:12:64
  TRACK 62 AUDIO
    TITLE "0:"
    INDEX 01 01:13:63
  TRACK 63 AUDIO
    TITLE "3:cjc114_2823"
    INDEX 01 01:14:16
  TRACK 64 AUDIO
    TITLE "0:"
    INDEX 01 01:15:17
  TRACK 65 AUDIO
    TITLE "4:cjc114_2824"
    INDEX 01 01:15:44
  TRACK 66 AUDIO
    TITLE "0:"
    INDEX 01 01:18:35
  TRACK 67 AUDIO
    TITLE "2:cjc114_2825"
    INDEX 01 01:19:13
  TRACK 68 AUDIO
    TITLE "0:"
    INDEX 01 01:20:14
  TRACK 69 AUDIO
    TITLE "3:cjc114_2826"
    INDEX 01 01:20:44
  TRACK 70 AUDIO
    TITLE "0:"
    INDEX 01 01:22:11
  TRACK 71 AUDIO
    TITLE "4:cjc114_2827"
    INDEX 01 01:22:39
  TRACK 72 AUDIO
    TITLE "0:"
    INDEX 01 01:25:70
  TRACK 73 AUDIO
    TITLE "2:cjc114_2828"
    INDEX 01 01:26:48
  TRACK 74 AUDIO
    TITLE "0:"
    INDEX 01 01:27:59
  TRACK 75 AUDIO
    TITLE "3:cjc114_2829"
    INDEX 01 01:28:12
  TRACK 76 AUDIO
    TITLE "0:"
    INDEX 01 01:29:52
  TRACK 77 AUDIO
    TITLE "4:cjc114_2830"
    INDEX 01 01:30:05
  TRACK 78 AUDIO
    TITLE "0:"
    INDEX 01 01:33:17
  TRACK 79 AUDIO
    TITLE "2:cjc114_2831"
    INDEX 01 01:33:70
  TRACK 80 AUDIO
    TITLE "0:"
    INDEX 01 01:35:26
  TRACK 81 AUDIO
    TITLE "3:cjc114_2832"
    INDEX 01 01:35:55
  TRACK 82 AUDIO
    TITLE "0:"
    INDEX 01 01:37:26
  TRACK 83 AUDIO
    TITLE "4:cjc114_2833"
    INDEX 01 01:37:52
  TRACK 84 AUDIO
    TITLE "0:"
    INDEX 01 01:40:72
